<svg width="600" height="400" viewBox="0 0 600 400" fill="none" xmlns="http://www.w3.org/2000/svg">
  <rect x="100" y="50" width="400" height="250" rx="10" fill="#F8F9FA"/>
  <rect x="120" y="80" width="360" height="40" rx="5" fill="#E2E8F0"/>
  <rect x="120" y="140" width="160" height="140" rx="5" fill="#E2E8F0"/>
  <rect x="300" y="140" width="180" height="60" rx="5" fill="#E2E8F0"/>
  <rect x="300" y="220" width="180" height="60" rx="5" fill="#E2E8F0"/>
  <circle cx="200" cy="210" r="40" fill="#6C63FF"/>
  <path d="M190 210L200 220L215 200" stroke="white" stroke-width="4" stroke-linecap="round" stroke-linejoin="round"/>
  <rect x="320" y="150" width="140" height="10" rx="2" fill="#6C63FF"/>
  <rect x="320" y="170" width="100" height="10" rx="2" fill="#6C63FF"/>
  <rect x="320" y="230" width="140" height="10" rx="2" fill="#6C63FF"/>
  <rect x="320" y="250" width="100" height="10" rx="2" fill="#6C63FF"/>
  <circle cx="500" cy="100" r="30" fill="#FF6B6B"/>
  <path d="M490 100H510M500 90V110" stroke="white" stroke-width="4" stroke-linecap="round"/>
  <path d="M50 300C50 300 100 250 150 300C200 350 250 300 300 300C350 300 400 350 450 300C500 250 550 300 550 300" stroke="#6C63FF" stroke-width="4" stroke-linecap="round"/>
</svg>

